<?xml version="1.0" encoding="utf-8"?>
<!-- Generator: Adobe Illustrator 16.0.0, SVG Export Plug-In . SVG Version: 6.00 Build 0)  -->
<!DOCTYPE svg PUBLIC "-//W3C//DTD SVG 1.1//EN" "http://www.w3.org/Graphics/SVG/1.1/DTD/svg11.dtd">
<svg version="1.1" id="Layer_1" xmlns="http://www.w3.org/2000/svg" xmlns:xlink="http://www.w3.org/1999/xlink" x="0px" y="0px"
	 width="1133.86px" height="632px" viewBox="0 0 1133.86 632" enable-background="new 0 0 1133.86 632" xml:space="preserve">
<path fill="#F59F16" d="M537.306,237v177.75c0,1.086,0.197,2.073,0.493,3.159l19.75,59.25c1.383,4.049,5.135,6.716,9.382,6.716
	c4.246,0,7.998-2.766,9.38-6.716l19.75-59.25c0.297-0.987,0.494-2.073,0.494-3.159V237c0-16.294-13.332-29.625-29.625-29.625
	C550.637,207.375,537.306,220.706,537.306,237z M566.931,442.795l-6.024-18.17h12.147l-6.024,18.17H566.931z M576.805,237v9.875
	h-19.75V237c0-5.432,4.443-9.875,9.875-9.875C572.362,227.125,576.805,231.569,576.805,237z"/>
<path fill="#F59F16" d="M843.43,562.875h-553c-5.431,0-9.875-4.444-9.875-9.875c0-5.432,4.444-9.875,9.875-9.875h266.625
	c10.863,0,19.75-8.888,19.75-19.75v-19.75h-19.75v19.75H290.43c-16.294,0-29.625,13.331-29.625,29.625
	c0,16.293,13.331,29.625,29.625,29.625h553c5.432,0,9.875,4.443,9.875,9.875c0,5.431-4.443,9.875-9.875,9.875h-276.5v19.75h276.5
	c16.293,0,29.625-13.332,29.625-29.625C873.055,576.206,859.723,562.875,843.43,562.875z"/>
<rect x="527.431" y="602.375" fill="#F59F16" width="19.75" height="19.75"/>
<rect x="487.931" y="602.375" fill="#F59F16" width="19.75" height="19.75"/>
<rect x="448.431" y="602.375" fill="#F59F16" width="19.75" height="19.75"/>
<rect x="408.93" y="602.375" fill="#F59F16" width="19.75" height="19.75"/>
<rect x="369.43" y="602.375" fill="#F59F16" width="19.75" height="19.75"/>
<rect x="329.93" y="602.375" fill="#F59F16" width="19.75" height="19.75"/>
<rect x="290.43" y="602.375" fill="#F59F16" width="19.75" height="19.75"/>
<path fill="#F59F16" d="M416.238,108.328l61.818,16.491v13.431c0,27.255,22.119,49.375,49.375,49.375h79
	c27.256,0,49.375-22.12,49.375-49.375V124.82l29.625-7.899v23.206c-11.455,4.049-19.75,14.911-19.75,27.848s8.295,23.7,19.75,27.848
	v21.527h19.75v-21.527c11.455-4.049,19.75-14.911,19.75-27.848s-8.295-23.7-19.75-27.848v-28.44l12.443-3.357
	c3.949-1.086,6.813-4.345,7.307-8.394s-1.58-7.899-5.135-9.875l-148.225-79c-2.863-1.58-6.418-1.58-9.282,0l-148.125,79
	c-3.555,1.876-5.629,5.826-5.135,9.875s3.357,7.406,7.308,8.394H416.238z M497.806,130.054l66.557,17.774
	c0.79,0.198,1.679,0.297,2.568,0.297c0.888,0,1.677-0.099,2.568-0.297l66.557-17.774v8.196c0,16.294-13.332,29.625-29.625,29.625
	h-79c-16.294,0-29.625-13.331-29.625-29.625V130.054z"/>
</svg>
