<?xml version="1.0" encoding="utf-8"?>
<!-- Generator: Adobe Illustrator 16.0.0, SVG Export Plug-In . SVG Version: 6.00 Build 0)  -->
<!DOCTYPE svg PUBLIC "-//W3C//DTD SVG 1.1//EN" "http://www.w3.org/Graphics/SVG/1.1/DTD/svg11.dtd">
<svg version="1.1" id="Capa_1" xmlns="http://www.w3.org/2000/svg" xmlns:xlink="http://www.w3.org/1999/xlink" x="0px" y="0px"
	 width="64px" height="64px" viewBox="0 0 64 64" enable-background="new 0 0 64 64" xml:space="preserve">
<path fill="#F59F16" d="M58,19.001c0-3.566-1.415-6.892-3.984-9.366c-2.57-2.473-5.963-3.766-9.521-3.624
	C37.749,6.267,32.266,11.75,32.01,18.495C32.003,18.664,32.016,19,32.016,19H22c-8.822,0-16,7.178-16,16
	c0,8.667,6.927,15.746,15.535,15.993l5.097,5.927C27.204,57.605,28.067,58,29,58s1.796-0.395,2.357-1.066l5.107-5.939
	C45.073,50.746,52,43.667,52,35c0-1.01-0.1-2-0.287-3H58V19.001z M50,35c0,7.721-6.279,14-14,14h-0.459l-5.71,6.641
	c-0.381,0.457-1.27,0.471-1.673-0.013L22.459,49H22c-7.72,0-14-6.279-14-14c0-7.72,6.28-14,14-14h10.157
	c0.401,3,1.592,5.057,3.477,7.016C38.107,30.585,41.434,32,45,32h4.673C49.887,33,50,33.986,50,35z M56,30H45
	c-3.018,0-5.832-1.197-7.926-3.372c-2.092-2.173-3.182-5.035-3.066-8.057c0.213-5.611,4.951-10.35,10.563-10.563
	C44.715,8.003,44.859,8,45.003,8c2.862,0,5.556,1.083,7.625,3.074C54.803,13.169,56,15.983,56,19.001V30z"/>
<path fill="#F59F16" d="M45,23c-1.104,0-2,0.896-2,2s0.896,2,2,2s2-0.896,2-2S46.104,23,45,23z"/>
<path fill="#F59F16" d="M24,26h6v2h-6V26z"/>
<path fill="#F59F16" d="M24,30h10v2H24V30z"/>
<path fill="#F59F16" d="M24,34h14v2H24V34z"/>
<path fill="#F59F16" d="M12,38h34v2H12V38z"/>
<path fill="#F59F16" d="M19,42h20v2H19V42z"/>
<path fill="#F59F16" d="M45,12c-2.206,0-4,2-4,4h2c0-1,0.896-2,2-2s2,0.897,2,2s-0.896,2-2,2h-1v3h2v-1.126c1-0.444,3-2.013,3-3.873
	C49,13.794,47.206,12,45,12z"/>
<path fill="#F59F16" d="M20,36h-8v-2c0-4.418,3.582-8,8-8l0,0V36z"/>
</svg>
