<?xml version="1.0" encoding="utf-8"?>
<!-- Generator: Adobe Illustrator 16.0.0, SVG Export Plug-In . SVG Version: 6.00 Build 0)  -->
<!DOCTYPE svg PUBLIC "-//W3C//DTD SVG 1.1//EN" "http://www.w3.org/Graphics/SVG/1.1/DTD/svg11.dtd">
<svg version="1.1" id="Capa_1" xmlns:serif="http://www.serif.com/"
	 xmlns="http://www.w3.org/2000/svg" xmlns:xlink="http://www.w3.org/1999/xlink" x="0px" y="0px" width="1133.86px" height="632px"
	 viewBox="0 0 1133.86 632" enable-background="new 0 0 1133.86 632" xml:space="preserve">
<rect id="_23.-Staging-website" x="94.131" y="1.724" fill="none" width="945.161" height="628.899"/>
<g id="Group-1">
	<path id="Rounded-Rectangle-1-copy-3" fill="#CCE6FF" fill-opacity="0.1608" d="M1006.932,199.295
		c0-16.351-13.273-29.625-29.625-29.625H481.769c-16.352,0-29.625,13.274-29.625,29.625v382.471
		c0,16.351,13.273,29.625,29.625,29.625h495.539c16.352,0,29.625-13.274,29.625-29.625V199.295z"/>
	<path id="Rounded-Rectangle-1-copy-2" fill="#F59F16" d="M979.282,172.879c0-16.351-13.273-29.625-29.625-29.625H459.981
		c-16.351,0-29.625,13.274-29.625,29.625v377.658c0,16.351,13.274,29.625,29.625,29.625h489.675
		c16.352,0,29.625-13.274,29.625-29.625V172.879z"/>
	<path id="Rounded-Rectangle-2-copy" fill="#FFFFFF" d="M456.352,227.127h490.895V535.93c0,9.427-7.645,17.07-17.072,17.07H479.825
		c-12.965,0-23.474-10.51-23.474-23.474V227.127L456.352,227.127z"/>
	<g>
		<defs>
			<path id="SVGID_1_" d="M456.352,227.127h490.895V535.93c0,9.427-7.645,17.07-17.072,17.07H479.825
				c-12.965,0-23.474-10.51-23.474-23.474V227.127L456.352,227.127z"/>
		</defs>
		<clipPath id="SVGID_2_">
			<use xlink:href="#SVGID_1_"  overflow="visible"/>
		</clipPath>
		<g clip-path="url(#SVGID_2_)">
			<path id="Shape-4" fill="#F59F16" d="M897.928,313.608l-6.482-1.299c-1.912,3.904-4.443,7.426-7.57,10.509l3.547,5.342
				c0.328,0.496,0.445,1.099,0.326,1.675c-0.117,0.587-0.457,1.097-0.949,1.421l-10.756,7.171c-1.029,0.684-2.398,0.396-3.084-0.622
				l-3.818-5.753c-4.041,1.397-8.25,2.113-12.555,2.125l-1.305,6.491c-0.111,0.579-0.455,1.093-0.949,1.42
				c-0.492,0.33-1.092,0.446-1.672,0.328l-12.645-2.56c-0.195-0.035-0.383-0.099-0.557-0.186c-0.873-0.438-1.385-1.426-1.182-2.436
				l1.365-6.812c-3.947-1.945-7.355-4.312-10.436-7.341l-5.414,3.622c-0.49,0.33-1.096,0.452-1.672,0.338
				c-0.576-0.11-1.086-0.458-1.414-0.952l-7.139-10.791c-0.678-1.029-0.404-2.412,0.623-3.098l5.6-3.744
				c-1.449-4.063-2.23-8.409-2.293-12.761l-6.113-1.226c-0.576-0.115-1.092-0.459-1.418-0.954c-0.326-0.494-0.443-1.095-0.326-1.675
				l2.547-12.68c0.244-1.207,1.416-1.991,2.617-1.756l6.283,1.252c1.857-4.03,4.377-7.681,7.508-10.896l-3.268-4.92
				c-0.328-0.492-0.447-1.097-0.332-1.679c0.115-0.579,0.457-1.093,0.949-1.42l10.766-7.172c1.029-0.69,2.41-0.402,3.08,0.616
				l3.373,5.1c4.189-1.53,8.602-2.307,13.164-2.318l1.129-5.617c0.24-1.206,1.414-1.988,2.617-1.748l12.648,2.534
				c1.209,0.257,1.98,1.418,1.74,2.627l-1.193,5.967c4,2.04,7.693,4.552,10.871,7.791l4.807-3.218
				c0.49-0.331,1.094-0.456,1.67-0.337c0.582,0.12,1.096,0.46,1.418,0.951l7.139,10.78c0.678,1.026,0.396,2.411-0.621,3.097
				l-5.234,3.495c1.445,4.191,2.152,8.564,2.105,13.045l5.932,1.182c0.592,0.122,1.09,0.456,1.416,0.948
				c0.328,0.491,0.447,1.1,0.328,1.676l-2.553,12.716C900.305,313.067,899.137,313.851,897.928,313.608z M872.178,298.229
				c1.438-7.122-2.068-14.349-8.523-17.577c-1.266-0.632-2.619-1.097-4.014-1.377c-8.693-1.742-17.178,3.923-18.926,12.624
				c-1.436,7.128,2.084,14.366,8.555,17.602c1.264,0.632,2.617,1.096,4.018,1.378c4.213,0.848,8.498-0.008,12.076-2.401
				C868.918,306.089,871.342,302.448,872.178,298.229L872.178,298.229z M805.995,313.535c-0.334,0.483-0.848,0.823-1.426,0.936
				l-8.898,1.663c-0.369,5.838-1.775,11.544-4.201,17.013l7.24,4.984c1.014,0.693,1.268,2.086,0.572,3.102l-9.426,13.793
				c-0.701,1.014-2.109,1.238-3.096,0.579l-7.746-5.327c-4.346,3.867-9.285,6.901-14.721,9.034l1.65,8.899
				c0.104,0.582-0.02,1.185-0.355,1.673c-0.334,0.487-0.848,0.831-1.432,0.938l-16.373,3.062c-1.197,0.217-2.365-0.568-2.592-1.785
				l-1.723-9.293c-5.787-0.306-11.422-1.625-16.787-3.93l-5.063,7.387c-0.635,0.928-1.846,1.226-2.822,0.736
				c-0.094-0.046-0.184-0.101-0.268-0.16l-13.725-9.435c-1.008-0.695-1.271-2.083-0.574-3.099l5.18-7.609
				c-3.902-4.302-7.08-9.378-9.291-14.851l-8.434,1.578c-1.199,0.224-2.367-0.564-2.586-1.777l-3.045-16.426
				c-0.23-1.217,0.576-2.38,1.773-2.607l8.641-1.623c0.244-6.026,1.564-11.876,3.934-17.445l-6.705-4.613
				c-1.012-0.695-1.268-2.082-0.57-3.097l9.412-13.796c0.33-0.491,0.848-0.823,1.424-0.936c0.58-0.105,1.172,0.016,1.664,0.354
				l6.934,4.762c4.461-4.101,9.602-7.312,15.334-9.569l-1.439-7.793c-0.109-0.585,0.018-1.186,0.352-1.675
				c0.334-0.488,0.846-0.824,1.428-0.935l16.367-3.075c1.209-0.217,2.369,0.575,2.592,1.785l1.529,8.221
				c6.027,0.304,11.912,1.731,17.531,4.25l4.518-6.622c0.34-0.488,0.852-0.83,1.428-0.933c0.582-0.114,1.16-0.002,1.668,0.35
				l13.732,9.44c0.484,0.336,0.818,0.85,0.926,1.43c0.104,0.583-0.016,1.186-0.355,1.673l-4.875,7.132
				c3.984,4.518,7.064,9.645,9.193,15.281l8.215-1.545c0.58-0.11,1.172,0.006,1.666,0.35c0.486,0.34,0.822,0.852,0.926,1.432
				l3.053,16.442C806.454,312.443,806.329,313.045,805.995,313.535L805.995,313.535z M767.1,309.026
				c-1.234-6.657-5.414-12.211-11.473-15.242c-4.182-2.09-8.828-2.741-13.438-1.875c-11.598,2.179-19.27,13.402-17.119,25.023
				c1.238,6.672,5.426,12.235,11.484,15.265c4.184,2.094,8.832,2.741,13.441,1.874C761.583,331.895,769.256,320.655,767.1,309.026
				L767.1,309.026z"/>
			<path id="Shape-4-copy" fill="#F59F16" d="M526.815,464.873l6.35,1.845c2.234-3.727,5.059-7.021,8.434-9.828l-3.081-5.624
				c-0.282-0.52-0.348-1.13-0.182-1.695c0.168-0.574,0.552-1.053,1.068-1.335l11.325-6.232c1.084-0.593,2.423-0.192,3.02,0.883
				l3.316,6.057c4.146-1.051,8.399-1.406,12.691-1.053l1.848-6.357c0.164-0.566,0.549-1.049,1.068-1.335
				c0.518-0.284,1.129-0.352,1.693-0.184l12.383,3.624c0.189,0.054,0.369,0.131,0.535,0.233c0.836,0.51,1.262,1.536,0.975,2.525
				l-1.939,6.672c3.768,2.273,6.963,4.922,9.773,8.202l5.705-3.15c0.516-0.288,1.127-0.357,1.691-0.195
				c0.566,0.16,1.045,0.547,1.328,1.068l6.199,11.36c0.586,1.08,0.195,2.436-0.885,3.032l-5.896,3.255
				c1.1,4.171,1.506,8.569,1.199,12.908l5.986,1.742c0.566,0.164,1.049,0.551,1.334,1.07c0.281,0.521,0.35,1.128,0.182,1.696
				l-3.615,12.419c-0.346,1.181-1.578,1.862-2.754,1.526l-6.156-1.781c-2.193,3.857-5.014,7.282-8.406,10.219l2.838,5.181
				c0.287,0.518,0.354,1.129,0.189,1.7c-0.164,0.566-0.549,1.049-1.068,1.335l-11.334,6.231c-1.084,0.603-2.434,0.197-3.018-0.877
				l-2.928-5.368c-4.303,1.169-8.766,1.57-13.313,1.195l-1.6,5.498c-0.344,1.183-1.578,1.862-2.757,1.521l-12.39-3.601
				c-1.183-0.357-1.853-1.58-1.509-2.763l1.694-5.844c-3.813-2.372-7.277-5.19-10.171-8.687l-5.062,2.799
				c-0.518,0.286-1.13,0.359-1.693,0.193c-0.568-0.17-1.05-0.551-1.331-1.07l-6.197-11.345c-0.589-1.082-0.189-2.437,0.881-3.033
				l5.515-3.038c-1.087-4.301-1.419-8.715-0.992-13.179l-5.811-1.679c-0.578-0.172-1.044-0.549-1.331-1.066
				c-0.284-0.516-0.352-1.132-0.186-1.699l3.626-12.452C524.4,465.211,525.633,464.53,526.815,464.873L526.815,464.873z
				 M551.166,482.386c-2.036,6.972,0.845,14.471,7.003,18.236c1.205,0.737,2.515,1.313,3.883,1.713
				c8.513,2.473,17.445-2.451,19.929-10.974c2.033-6.979-0.861-14.49-7.031-18.263c-1.205-0.738-2.516-1.315-3.887-1.714
				c-4.125-1.203-8.468-0.715-12.234,1.366C555.082,474.829,552.356,478.252,551.166,482.386L551.166,482.386z M618.413,472.751
				c0.373-0.452,0.914-0.746,1.498-0.81l9.006-0.902c0.865-5.785,2.752-11.353,5.631-16.594l-6.789-5.582
				c-0.949-0.777-1.084-2.184-0.305-3.138l10.563-12.942c0.783-0.952,2.207-1.055,3.133-0.314l7.266,5.963
				c4.656-3.483,9.838-6.085,15.434-7.748l-0.885-9.008c-0.057-0.591,0.115-1.179,0.494-1.638c0.373-0.458,0.916-0.756,1.504-0.813
				l16.576-1.659c1.211-0.114,2.307,0.767,2.432,1.997l0.924,9.407c5.74,0.796,11.244,2.589,16.395,5.34l5.672-6.93
				c0.711-0.871,1.943-1.063,2.873-0.494c0.092,0.054,0.176,0.116,0.254,0.182l12.875,10.566c0.943,0.78,1.09,2.185,0.311,3.137
				l-5.811,7.144c3.525,4.617,6.26,9.943,7.998,15.584l8.535-0.856c1.217-0.121,2.311,0.764,2.428,1.99l1.639,16.626
				c0.125,1.232-0.775,2.322-1.988,2.449l-8.744,0.883c-0.76,5.983-2.572,11.699-5.404,17.048l6.289,5.167
				c0.951,0.775,1.088,2.18,0.307,3.134l-10.551,12.946c-0.371,0.462-0.914,0.746-1.496,0.81c-0.59,0.056-1.168-0.114-1.629-0.491
				l-6.504-5.335c-4.793,3.707-10.189,6.47-16.09,8.233l0.771,7.887c0.057,0.593-0.119,1.181-0.494,1.642
				c-0.373,0.456-0.914,0.746-1.5,0.808l-16.57,1.673c-1.225,0.116-2.311-0.772-2.432-1.997l-0.826-8.322
				c-5.98-0.814-11.721-2.735-17.107-5.722l-5.064,6.213c-0.379,0.458-0.918,0.755-1.5,0.81c-0.59,0.063-1.154-0.099-1.633-0.491
				l-12.881-10.57c-0.453-0.377-0.744-0.916-0.801-1.505c-0.053-0.591,0.119-1.179,0.496-1.638l5.463-6.69
				c-3.584-4.839-6.219-10.209-7.863-16.006l-8.314,0.842c-0.588,0.061-1.168-0.107-1.631-0.49
				c-0.457-0.379-0.746-0.918-0.803-1.505l-1.643-16.644C617.86,473.802,618.038,473.212,618.413,472.751L618.413,472.751z
				 M656.784,480.547c0.664,6.738,4.355,12.628,10.137,16.163c3.988,2.438,8.564,3.482,13.23,3.008
				c11.74-1.187,20.336-11.716,19.182-23.479c-0.666-6.753-4.367-12.652-10.146-16.186c-3.99-2.44-8.568-3.479-13.236-3.008
				C664.223,458.23,655.622,468.778,656.784,480.547L656.784,480.547z"/>
			<path id="Shape-3" fill="#D0850C" d="M941.079,443.452v13.213l-18.389,8.173c-0.725,3.813-1.725,7.526-2.977,11.125
				l11.836,16.268l-6.607,11.443l-20.027-2.119c-2.51,2.901-5.227,5.617-8.127,8.125l2.119,20.03l-11.441,6.606l-16.27-11.836
				c-3.596,1.252-7.313,2.254-11.127,2.979l-8.172,18.387h-13.211l-8.172-18.389c-3.816-0.723-7.531-1.725-11.127-2.977
				l-16.27,11.836l-11.439-6.606l2.117-20.028c-2.902-2.508-5.619-5.224-8.129-8.127l-20.025,2.119l-6.607-11.443l11.836-16.266
				c-1.254-3.599-2.254-7.313-2.979-11.129l-18.389-8.171v-13.213l18.389-8.173c0.725-3.813,1.723-7.53,2.975-11.129l-11.832-16.264
				l6.607-11.443l20.033,2.119c2.51-2.899,5.221-5.619,8.121-8.127l-2.117-20.028l11.439-6.606l16.27,11.836
				c3.598-1.252,7.313-2.254,11.127-2.979l8.172-18.387h13.211l8.172,18.387c3.814,0.725,7.529,1.727,11.125,2.979l16.271-11.836
				l11.441,6.606l-2.119,20.028c2.9,2.508,5.611,5.228,8.121,8.127l20.033-2.119l6.607,11.443l-11.834,16.264
				c1.254,3.599,2.252,7.315,2.977,11.129L941.079,443.452z M845.292,420.31c-16.43,0-29.748,13.319-29.748,29.749
				s13.318,29.747,29.748,29.747s29.748-13.317,29.748-29.747S861.721,420.31,845.292,420.31z"/>
		</g>
	</g>
	<circle id="Ellipse-1-copy-5" fill="#0084FF" cx="521.175" cy="183.466" r="13.979"/>
	<circle id="Ellipse-1-copy-4" fill="#55D7FF" cx="480.996" cy="183.466" r="13.979"/>
	<ellipse id="Ellipse-1-copy-3" fill="#0BBC00" cx="561.323" cy="183.466" rx="13.949" ry="13.979"/>
	<path id="Rounded-Rectangle-3-copy" fill="#E5F1FF" d="M861.831,182.508c0-7.085-5.75-12.838-12.836-12.838H714.633
		c-7.086,0-12.838,5.753-12.838,12.838v2.1c0,7.084,5.752,12.837,12.838,12.837h134.361c7.086,0,12.836-5.753,12.836-12.837V182.508
		z"/>
	<path id="Rounded-Rectangle-3-copy-3" fill="#E5F1FF" d="M950.706,182.415c0-7.136-5.793-12.931-12.928-12.931h-17.775
		c-7.137,0-12.93,5.795-12.93,12.931v2.099c0,7.136,5.793,12.931,12.93,12.931h17.775c7.135,0,12.928-5.795,12.928-12.931V182.415z"
		/>
</g>
<path id="Rounded-Rectangle-1-copy" fill="#F4F4F4" fill-opacity="0.549" d="M695.417,88.207c0-16.351-13.275-29.625-29.625-29.625
	H170.233c-16.351,0-29.625,13.274-29.625,29.625v382.461c0,16.351,13.274,29.625,29.625,29.625h495.558
	c16.35,0,29.625-13.274,29.625-29.625V88.207z"/>
<path id="Shape-5" fill="#F59F16" d="M654.704,40.246l316,112.575h-308.1"/>
<path id="Shape-5-copy" fill="#F59F16" d="M451.278,577.447l-316-112.575h308.1"/>
<linearGradient id="Rounded-Rectangle-1_1_" gradientUnits="userSpaceOnUse" x1="0.3931" y1="632.7307" x2="1.3931" y2="632.7307" gradientTransform="matrix(3.126859e-014 510.654 510.654 -3.126859e-014 -322712.8438 37.8292)">
	<stop  offset="0" style="stop-color:#F59F16"/>
	<stop  offset="1" style="stop-color:#D0850C"/>
</linearGradient>
<path id="Rounded-Rectangle-1" fill="url(#Rounded-Rectangle-1_1_)" d="M667.743,61.8c0-16.35-13.275-29.625-29.625-29.625h-489.69
	c-16.349,0-29.625,13.275-29.625,29.625v377.661c0,16.349,13.276,29.625,29.625,29.625h489.69c16.35,0,29.625-13.276,29.625-29.625
	V61.8z"/>
<path id="Rounded-Rectangle-2" fill="#FFFFFF" d="M144.825,116.03h490.894V424.83c0,9.429-7.643,17.071-17.072,17.071H168.298
	c-12.964,0-23.473-10.509-23.473-23.473V116.03L144.825,116.03z"/>
<g>
	<defs>
		<path id="SVGID_3_" d="M144.825,116.03h490.894V424.83c0,9.429-7.643,17.071-17.072,17.071H168.298
			c-12.964,0-23.473-10.509-23.473-23.473V116.03L144.825,116.03z"/>
	</defs>
	<clipPath id="SVGID_4_">
		<use xlink:href="#SVGID_3_"  overflow="visible"/>
	</clipPath>
	<rect id="Rectangle-1" x="185.419" y="139.67" clip-path="url(#SVGID_4_)" fill="#F59F16" width="394.501" height="81.82"/>
	<rect id="Rectangle-2" x="188.554" y="238.428" clip-path="url(#SVGID_4_)" fill="#F59F16" width="126.098" height="68.084"/>
	<rect id="Rectangle-2-copy" x="188.554" y="334.118" clip-path="url(#SVGID_4_)" fill="#F59F16" width="266.001" height="82.954"/>
	
		<rect id="Rectangle-2-copy-2" x="470.558" y="334.118" clip-path="url(#SVGID_4_)" fill="#F59F16" width="108.361" height="82.954"/>
	<rect id="Rectangle-3" x="332.857" y="238.894" clip-path="url(#SVGID_4_)" fill="#F59F16" width="109.362" height="24.407"/>
	<rect id="Rectangle-4" x="331.923" y="280.704" clip-path="url(#SVGID_4_)" fill="#F59F16" width="248.263" height="26.14"/>
</g>
<circle id="Ellipse-1" fill="#055BA8" cx="209.661" cy="72.352" r="13.971"/>
<circle id="Ellipse-1-copy" fill="#168BF5" cx="169.45" cy="72.352" r="13.971"/>
<circle id="Ellipse-1-copy-2" fill="#FF0000" cx="249.802" cy="72.352" r="13.971"/>
<path id="Rounded-Rectangle-3" fill="#E5F1FF" d="M550.313,71.42c0-7.087-5.753-12.838-12.838-12.838H403.11
	c-7.086,0-12.837,5.751-12.837,12.838v2.065c0,7.085,5.751,12.838,12.837,12.838h134.365c7.085,0,12.838-5.753,12.838-12.838V71.42z
	"/>
<path id="Rounded-Rectangle-3-copy-2" fill="#E5F1FF" d="M639.202,71.316c0-7.138-5.795-12.933-12.936-12.933h-17.811
	c-7.137,0-12.932,5.795-12.932,12.933v2.073c0,7.138,5.795,12.935,12.932,12.935h17.811c7.141,0,12.936-5.797,12.936-12.935V71.316z
	"/>
</svg>
