<?xml version="1.0" encoding="utf-8"?>
<!-- Generator: Adobe Illustrator 16.0.0, SVG Export Plug-In . SVG Version: 6.00 Build 0)  -->
<!DOCTYPE svg PUBLIC "-//W3C//DTD SVG 1.1//EN" "http://www.w3.org/Graphics/SVG/1.1/DTD/svg11.dtd">
<svg version="1.1"
	 id="svg8" xmlns:sodipodi="http://sodipodi.sourceforge.net/DTD/sodipodi-0.dtd" xmlns:svg="http://www.w3.org/2000/svg" xmlns:rdf="http://www.w3.org/1999/02/22-rdf-syntax-ns#" xmlns:cc="http://creativecommons.org/ns#" xmlns:inkscape="http://www.inkscape.org/namespaces/inkscape" xmlns:dc="http://purl.org/dc/elements/1.1/"
	 xmlns="http://www.w3.org/2000/svg" xmlns:xlink="http://www.w3.org/1999/xlink" x="0px" y="0px" width="64px" height="64px"
	 viewBox="0 0 64 64" enable-background="new 0 0 64 64" xml:space="preserve">
<g id="layer1">
	<path id="path17351" fill="#F59F16" d="M11.004,12.994v1.953C10.377,15.604,10,16.535,10,17.52c0,1.858,1.342,3.531,3.168,3.531
		c0.116,0,0.227-0.004,0.342-0.02c0.651,1.837,1.889,3.397,3.49,4.463c-0.001,0.487-0.002,0.97-0.002,1.459
		c-1.999,0.919-4.001,1.835-6.008,2.756c-1.151,0.555-2.29,1.063-3.262,1.826c-1.04,0.816-1.762,1.852-1.992,3.301l-1.352,8.51
		C2.976,43.969,2,45.373,2,47v11c0,2.199,1.764,4,4.002,4h19.996C28.236,62,30,60.199,30,58v-7h4.273
		c1.553,0,3.062-0.604,4.131-1.553c1.115-0.992,1.797-2.431,1.547-4.004l-1.684-10.607c-0.23-1.449-0.953-2.484-1.992-3.301
		c-0.973-0.763-2.111-1.271-3.264-1.826c-2.008-0.921-4.009-1.836-6.008-2.756c0-0.486-0.001-0.967-0.002-1.451
		c1.602-1.065,2.84-2.618,3.492-4.475c0.115,0.015,0.231,0.023,0.348,0.023c1.826,0,3.158-1.673,3.158-3.531
		c0-0.984-0.373-1.914-0.996-2.57v-1.955C33.004,6.916,28.083,2,22.006,2C15.961,2,11.004,6.869,11.004,12.994z M54.994,4.002
		C54.441,4,53.992,4.446,53.99,4.998V17H52V7.996C51.998,7.447,51.553,7.002,51.004,7h-4C46.451,6.998,46.002,7.444,46,7.996V17h-2
		v-6.004c-0.002-0.549-0.447-0.994-0.996-0.996h-4c-0.553-0.003-1.004,0.443-1.006,0.996V17H37c-1.334,0-1.334,2,0,2h24
		c1.334,0,1.334-2,0-2h-1.008V4.998c-0.002-0.549-0.447-0.994-0.996-0.996H54.994z M25.309,12.721
		c0.249,0.673,0.637,1.293,1.154,1.811c0.697,0.697,1.589,1.172,2.541,1.369v2.158c0,3.856-3.132,6.941-7,6.941
		c-3.899,0-6.998-3.085-6.998-6.941v-2.08C18.978,15.814,22.723,14.634,25.309,12.721z M31.004,16.016
		c0.511,0.1,0.992,0.697,1,1.504c-0.011,0.873-0.528,1.451-1.059,1.521c0.034-0.323,0.059-0.65,0.059-0.982V16.016z M13.002,16.018
		c0,1.058-0.022,2.488,0.057,3.023C12.528,18.971,12,18.392,12,17.52C12,16.7,12.49,16.117,13.002,16.018L13.002,16.018z M54,23.998
		v2c0,0.667,0.5,1.001,1,1.002c0.5-0.001,1-0.335,1-1.002v-2c0-0.554-0.418-0.985-1-0.996C54.418,23.013,54,23.444,54,23.998z
		 M48.875,26.295l1.418,1.41c0.986,0.917,2.33-0.465,1.418-1.41l-1.418-1.418c-0.188-0.193-0.432-0.291-0.701-0.291
		C48.688,24.579,48.251,25.676,48.875,26.295z M60.408,24.586c-0.27,0-0.514,0.098-0.701,0.291l-1.418,1.418
		c-0.912,0.945,0.432,2.328,1.418,1.41l1.418-1.41C61.749,25.676,61.313,24.579,60.408,24.586L60.408,24.586z M25.002,26.49v1.178
		L22.5,30.996h-0.996l-2.502-3.328v-1.174C19.941,26.825,20.952,27,22.004,27C23.054,27,24.064,26.82,25.002,26.49L25.002,26.49z
		 M17.459,28.943l2.227,2.959l-1.6,1.604l-2.834-3.551L17.459,28.943z M26.545,28.943l2.207,1.012l-2.834,3.551l-1.6-1.604
		L26.545,28.943z M54.234,29.35l-6.002,6.998c-0.561,0.649-0.096,1.657,0.762,1.654h2c0,5.318-1.445,9.545-4.111,12.445
		c-2.639,2.869-6.598,4.555-11.885,4.555c-0.612,0-0.998,0.502-0.998,1.006c0,0.449,0.367,0.994,0.998,0.994
		c5.373,0,11.328-0.242,15.98-2.746C55.757,51.718,59,46.741,59,38c0.592,0.057,1.363,0.012,2.012,0.002
		c0.848-0.016,1.292-1.013,0.738-1.654l-5.994-6.998c-0.199-0.231-0.492-0.358-0.797-0.346C54.68,29.014,54.416,29.138,54.234,29.35
		L54.234,29.35z M13.371,30.816l3.852,4.809c0.372,0.463,1.063,0.501,1.484,0.082l0.283-0.283l0.887,0.871l-0.781,2.703h-6.223
		c-1.603,0-2.871,1.304-2.871,2.879V43H6.469l1.246-7.848c0.151-0.951,0.604-1.535,1.254-2.045c0.696-0.547,1.706-1.029,2.871-1.59
		L13.371,30.816z M30.633,30.816l1.531,0.701c1.164,0.561,2.175,1.043,2.871,1.59c0.65,0.51,1.103,1.094,1.254,2.045l1.684,10.607
		c0.131,0.828-0.229,1.596-0.9,2.191C36.342,48.6,35.318,49,34.273,49H30v-2c0-2.176-1.742-3.962-3.936-3.998l-1.938-6.707
		l0.887-0.871l0.283,0.283c0.421,0.419,1.112,0.381,1.484-0.082L30.633,30.816z M21.416,32.996h1.172l1.014,1.014l-1.6,1.57
		l-1.6-1.57L21.416,32.996z M21.504,37.85c0.155,0.089,0.326,0.119,0.496,0.119h0.002c0.17,0,0.341-0.03,0.496-0.119L23.98,43
		h-1.982v-1.123c0-0.877-0.39-1.664-1.014-2.195L21.504,37.85z M12.873,40.998h6.254c0.502,0,0.871,0.41,0.871,0.879V43h-7.996
		v-1.123C12.002,41.408,12.371,40.998,12.873,40.998L12.873,40.998z M6.002,45h19.996C27.096,45,28,45.875,28,47v0.996
		c0,2.443-1.717,4.448-4.002,4.906v-0.904c0-0.614-0.495-0.996-1.004-0.996h-4c-0.55,0.002-0.996,0.447-0.998,0.996v1.004h-3.992
		v-1.004c-0.002-0.549-0.449-0.994-0.998-0.996h-4c-0.509,0-1.004,0.382-1.004,0.996v0.904C5.717,52.444,4,50.439,4,47.996V47
		C4,45.875,4.904,45,6.002,45L6.002,45z M4,52.906c1.046,1.068,2.437,1.797,4.002,2.018v1.074C8,56.553,8.45,57.006,9.006,57.004h4
		c0.552-0.002,1-0.453,0.998-1.006v-0.996h3.992v0.996c-0.002,0.553,0.445,1.004,0.998,1.006h4c0.555,0.002,1.006-0.451,1.004-1.006
		v-1.074c1.564-0.221,2.955-0.949,4.002-2.018V58c0,1.125-0.9,2-2.002,2H6.002C4.9,60,4,59.125,4,58V52.906z"/>
</g>
</svg>
