<?xml version="1.0" encoding="utf-8"?>
<!-- Generator: Adobe Illustrator 16.0.0, SVG Export Plug-In . SVG Version: 6.00 Build 0)  -->
<!DOCTYPE svg PUBLIC "-//W3C//DTD SVG 1.1//EN" "http://www.w3.org/Graphics/SVG/1.1/DTD/svg11.dtd">
<svg version="1.1" id="design" xmlns="http://www.w3.org/2000/svg" xmlns:xlink="http://www.w3.org/1999/xlink" x="0px" y="0px"
	 width="1133.86px" height="632px" viewBox="0 0 1133.86 632" enable-background="new 0 0 1133.86 632" xml:space="preserve">
<g>
	<g>
		<path fill="#D0850C" d="M760.323,440.504H642.137c-3.791,0-7.584,3.159-7.584,7.584v6.951H499.306v-6.951
			c0-3.792-3.159-7.584-7.584-7.584H373.538c-3.792,0-7.584,3.159-7.584,7.584v25.279c0,2.528,1.264,4.424,3.16,5.688l17.696,13.903
			c1.264,1.265,2.528,1.265,4.424,1.265h351.391c1.896,0,3.16-0.632,4.424-1.265l17.697-13.903c1.896-1.265,3.16-3.792,3.16-5.688
			v-25.279C767.907,443.663,764.747,440.504,760.323,440.504z M753.37,469.575l-13.271,10.112H393.762l-13.272-10.112v-14.536
			h104.28v6.952c0,3.792,3.16,7.584,7.584,7.584h149.783c3.793,0,7.584-3.16,7.584-7.584v-6.952H753.37V469.575z"/>
		<path fill="#D0850C" d="M398.186,424.072h338.121c3.791,0,7.584-3.16,7.584-7.584V183.912c0-25.28-20.857-46.137-46.137-46.137
			H436.738c-12.008,0-24.016,4.425-32.232,13.272c-8.848,8.848-13.272,20.224-13.272,32.231v233.208
			C390.602,420.911,393.762,424.072,398.186,424.072z M405.138,183.912c0-8.217,3.16-16.433,9.48-22.12
			c5.688-5.688,13.904-8.849,22.12-8.849l0,0h261.016c17.064,0,31.6,13.904,31.6,31.601v225.624H405.138V183.912z"/>
	</g>
	<path fill="#D0850C" d="M697.122,176.96H436.738c-3.792,0-7.584,3.16-7.584,7.584V385.52h274.92V183.912
		C704.075,180.12,700.915,176.96,697.122,176.96z M461.386,208.56h211.089v121.976l-39.816-32.863l-39.186,29.071L533.435,268.6
		l-72.049,71.416V208.56z"/>
	<circle fill="#D0850C" cx="600.426" cy="257.856" r="18.96"/>
</g>
</svg>
